# AST/ASF file generated using VICON BodyLanguage
# -----------------------------------------------
:version 1.10
:name VICON
:units
  mass 1.0
  length 0.45
  angle deg
:documentation
   .ast/.asf automatically generated from VICON data using
   VICON BodyBuilder and BodyLanguage model FoxedUp or BRILLIANT.MOD
:root
   order TX TY TZ RX RY RZ
   axis XYZ
   position 0 0 0  
   orientation 0 0 0 
:bonedata
  begin
     id 1 
     name lhipjoint
     direction 0.707368 -0.647095 0.284426 
     length 2.60678 
     axis 0 0 0  XYZ
  end
  begin
     id 2 
     name lfemur
     direction 0.34202 -0.939693 0  
     length 6.63812  
     axis 0 0 20  XYZ
    dof rx ry rz
    limits (-160.0 20.0)
           (-70.0 70.0)
           (-60.0 70.0)
  end
  begin
     id 3 
     name ltibia
     direction 0.34202 -0.939693 0   
     length 7.51178   
     axis 0 0 20   XYZ
    dof rx
    limits (-10.0 170.0)
  end
  begin
     id 4 
     name lfoot
     direction 0.121251 -0.333133 0.935051   
     length 1.83716   
     axis -90 7.62852e-016 20   XYZ
    dof rx rz
    limits (-45.0 90.0)
           (-70.0 20.0)
  end
  begin
     id 5 
     name ltoes
     direction 1.53611e-011 -4.21962e-011 1   
     length 0.916133   
     axis -90 7.62852e-016 20   XYZ
    dof rx
    limits (-90.0 20.0)
  end
  begin
     id 6 
     name rhipjoint
     direction -0.692419 -0.660507 0.290321   
     length 2.55385  
     axis 0 0 0  XYZ 
  end
  begin
     id 7 
     name rfemur
     direction -0.34202 -0.939693 0   
     length 7.29079   
     axis 0 0 -20   XYZ
    dof rx ry rz
    limits (-160.0 20.0)
           (-70.0 70.0)
           (-70.0 60.0)
  end
  begin
     id 8 
     name rtibia
     direction -0.34202 -0.939693 0   
     length 7.47143   
     axis 0 0 -20   XYZ
    dof rx
    limits (-10.0 170.0)
 end
 begin
     id 9 
     name rfoot
     direction -0.119907 -0.329441 0.936532   
     length 1.79439  
     axis -90 -7.62852e-016 -20   XYZ
    dof rx rz
    limits (-45.0 90.0)
           (-20.0 70.0)
  end
  begin
     id 10 
     name rtoes
     direction -1.53571e-011 -4.21961e-011 1   
     length 0.896039   
     axis -90 -7.62852e-016 -20   XYZ
    dof rx
    limits (-90.0 20.0)
  end
  begin
     id 11 
     name lowerback
     direction 0.0367721 0.992912 -0.113016   
     length 1.73542   
     axis 0 0 0   XYZ
    dof rx ry rz
    limits (-20.0 45.0)
           (-30.0 30.0)
           (-30.0 30.0)
  end
  begin
     id 12 
     name upperback
     direction -0.000314626 0.990678 0.136227   
     length 1.7514   
     axis 0 0 0   XYZ
    dof rx ry rz
    limits (-20.0 45.0)
           (-30.0 30.0)
           (-30.0 30.0)
  end
  begin
     id 13 
     name thorax
     direction -0.0226159 0.981151 0.191917   
     length 1.71471   
     axis 0 0 0   XYZ
    dof rx ry rz
    limits (-20.0 45.0)
           (-30.0 30.0)
           (-30.0 30.0)
  end
  begin
     id 14 
     name lowerneck
     direction 0.0219333 0.998071 0.0580739   
     length 1.65882   
     axis 0 0 0   XYZ
    dof rx ry rz
    limits (-20.0 45.0)
           (-30.0 30.0)
           (-30.0 30.0)
  end
  begin
     id 15 
     name upperneck
     direction 0.0384529 0.980058 -0.194957   
     length 1.6612   
     axis 0 0 0   XYZ
    dof rx ry rz
    limits (-20.0 45.0)
           (-30.0 30.0)
           (-30.0 30.0)
  end
  begin
     id 16
     name head
     direction 0.00592123 0.997421 -0.0715234  
     length 1.68077  
     axis 0 0 0   XYZ
    dof rx ry rz
    limits (-20.0 45.0)
           (-30.0 30.0)
           (-30.0 30.0)
  end
  begin
     id 17 
     name lclavicle
     direction 0.904803 0.417826 0.0821728  
     length 3.42227  
     axis 0 0 0   XYZ
    dof ry rz
    limits (-20.0 10.0)
           (0.0 20.0)
  end
  begin
     id 18 
     name lhumerus
     direction 1 -4.48965e-011 -2.68786e-027   
     length 5.11878   
     axis -180 -30 -90   XYZ
    dof rx ry rz
    limits (-60.0 90.0)
           (-90.0 90.0)
           (-90.0 90.0)
  end
  begin
     id 19
     name lradius
     direction 1 -4.48965e-011 2.61168e-028   
     length 3.59971   
     axis -180 -30 -90   XYZ
    dof rx
    limits (-10.0 170.0)
  end
  begin
     id 20
     name lwrist
     direction 1 -4.48965e-011 1.58672e-027   
     length 1.79985   
     axis -1.65735e-015 90 90   XYZ
    dof ry
    limits (-180.0 0.0)
 end
  begin
     id 21 
     name lhand
     direction 1 -4.48942e-011 3.17344e-027   
     length 0.62877   
     axis -2.02492e-015 90 90   XYZ
    dof rx rz
    limits (-90.0 90.0)
           (-45.0 45.0)
  end
  begin
     id 22 
     name lfingers
     direction 1 -4.49011e-011 6.34687e-027   
     length 0.506931   
     axis -4.04985e-015 90 90   XYZ
    dof rx
    limits (0.0 90.0)
  end
  begin
     id 23
     name lthumb
     direction 0.707107 -6.34982e-011 0.707107   
     length 0.727854   
     axis -90 45 2.85299e-015   XYZ
    dof rx rz
    limits (-45.0 45.0)
           (-45.0 45.0)
  end
  begin
     id 24 
     name rclavicle
     direction -0.945647 0.32488 0.0143075   
     length 3.52737  
     axis 0 0 0   XYZ 
    dof ry rz
    limits (-10.0 20.0)
           (-20.0 0.0)
  end
  begin
     id 25 
     name rhumerus
     direction -1 -4.48962e-011 1.92182e-027  
     length 5.4902   
     axis -180 30 90   XYZ
    dof rx ry rz
    limits (-90.0 60.0)
           (-90.0 90.0)
           (-90.0 90.0)
  end
  begin
     id 26 
     name rradius
     direction -1 -4.48967e-011 -5.97193e-028   
     length 3.20659   
     axis -180 30 90   XYZ
    dof rx
    limits (-10.0 170.0)
  end
  begin
     id 27 
     name rwrist
     direction -1 -4.48964e-011 1.58672e-027   
     length 1.6033   
     axis -1.65735e-015 -90 -90   XYZ
    dof ry
    limits (-180.0 0.0)
  end
  begin
     id 28
     name rhand
     direction -1 -4.49006e-011 3.17344e-027   
     length 0.691885   
     axis -2.02492e-015 -90 -90   XYZ
    dof rx rz
    limits (-90.0 90.0)
           (-45.0 45.0)
  end
  begin
     id 29
     name rfingers
     direction -1 -4.48908e-011 6.34687e-027   
     length 0.557815   
     axis -4.04985e-015 -90 -90   XYZ
    dof rx
    limits (0.0 90.0)
  end
  begin
     id 30
     name rthumb
     direction -0.707107 -6.34999e-011 0.707107   
     length 0.800915   
     axis -90 -45 -2.85299e-015   XYZ
    dof rx rz
    limits (-45.0 45.0)
           (-45.0 45.0)
  end
:hierarchy
  begin
    root lhipjoint rhipjoint lowerback
    lhipjoint lfemur
    lfemur ltibia
    ltibia lfoot
    lfoot ltoes
    rhipjoint rfemur
    rfemur rtibia
    rtibia rfoot
    rfoot rtoes
    lowerback upperback
    upperback thorax
    thorax lowerneck lclavicle rclavicle
    lowerneck upperneck
    upperneck head
    lclavicle lhumerus
    lhumerus lradius
    lradius lwrist
    lwrist lhand lthumb
    lhand lfingers
    rclavicle rhumerus
    rhumerus rradius
    rradius rwrist
    rwrist rhand rthumb
    rhand rfingers
  end

#!OML:ASF I:\Actors\actors\Patient Classification 1\Patient 1\Session 1\Subject1.ASF
:FULLY-SPECIFIED
:DEGREES
43
root -0.00716684 17.5468 8.48096 11.5157 2.37479 -8.5515
lowerback -1.72161 0.757623 6.43593
upperback -11.5714 1.47226 1.4316
thorax -11.3554 0.184263 -2.1539
lowerneck 0.897218 -13.196 -12.1477
upperneck 19.2941 -20.0757 11.9468
head 8.28462 -9.76817 4.15494
rclavicle -1.53064e-014 -1.07344e-014
rhumerus -44.5124 -12.8828 -80.5886
rradius 24.7652
rwrist 38.4841
rhand 5.21146 -35.4093
rfingers 7.12502
rthumb 30.5716 -62.8915
lclavicle -1.53064e-014 -1.07344e-014
lhumerus -43.7978 12.1066 80.6401
lradius 23.0117
lwrist -24.46
lhand -9.3108 -8.88732
lfingers 7.12502
lthumb 16.6472 20.4188
rfemur -4.84118 26.2643 24.5184
rtibia 0.869203
rfoot -14.3669 -29.6991
rtoes 7.9476
lfemur 1.09786 -51.3178 -8.62725
ltibia -4.23761
lfoot -29.8917 56.7646
ltoes 16.5018
44
root -0.00746015 17.5469 8.48069 11.5141 2.36028 -8.55692
lowerback -1.73214 0.756593 6.40291
upperback -11.5603 1.46937 1.44998
thorax -11.3366 0.187999 -2.11541
lowerneck 0.885108 -13.1906 -12.1467
upperneck 19.2716 -20.0667 11.961
head 8.27931 -9.76271 4.15996
rclavicle 8.15017e-015 -9.54166e-015
rhumerus -44.5143 -12.8495 -80.5247
rradius 24.7584
rwrist 38.4791
rhand 5.21498 -35.5054
rfingers 7.12502
rthumb 30.575 -62.9871
lclavicle 8.15017e-015 -9.54166e-015
lhumerus -43.8378 12.0052 80.7011
lradius 23.0646
lwrist -24.3138
lhand -9.51589 -8.5856
lfingers 7.12502
lthumb 16.4498 20.737
rfemur -4.84557 26.233 24.5243
rtibia 0.870905
rfoot -14.34 -29.6626
rtoes 7.90726
lfemur 1.10492 -51.2646 -8.61748
ltibia -4.25867
lfoot -29.8925 56.7076
ltoes 16.648
45
root -0.00828445 17.5475 8.48083 11.5002 2.35466 -8.56313
lowerback -1.72994 0.757405 6.37272
upperback -11.5444 1.46921 1.45942
thorax -11.3194 0.19226 -2.08858
lowerneck 0.869047 -13.1921 -12.1595
upperneck 19.2434 -20.0729 12.0061
head 8.2797 -9.76313 4.17451
rclavicle 2.23633e-014 1.59028e-015
rhumerus -44.5202 -12.8614 -80.4372
rradius 24.7715
rwrist 38.558
rhand 5.2269 -35.5546
rfingers 7.12502
rthumb 30.5864 -63.034
lclavicle 2.23633e-014 1.59028e-015
lhumerus -43.8656 11.9236 80.7436
lradius 23.1068
lwrist -24.1644
lhand -9.83693 -8.24477
lfingers 7.12502
lthumb 16.1407 21.1031
rfemur -4.83156 26.2316 24.5427
rtibia 0.881828
rfoot -14.3867 -29.6606
rtoes 7.96299
lfemur 1.12701 -51.1765 -8.61083
ltibia -4.29794
lfoot -29.8634 56.63
ltoes 16.7206
46
root -0.0087978 17.5472 8.48051 11.495 2.36064 -8.59308
lowerback -1.73806 0.759396 6.37646
upperback -11.529 1.47173 1.47242
thorax -11.2965 0.19491 -2.07675
lowerneck 0.827588 -13.2071 -12.1589
upperneck 19.2245 -20.0921 12.0259
head 8.28535 -9.7691 4.17512
rclavicle -3.97569e-015 3.57812e-015
rhumerus -44.5122 -12.9401 -80.2993
rradius 24.7674
rwrist 38.7425
rhand 5.21828 -35.4704
rfingers 7.12502
rthumb 30.5782 -62.9514
lclavicle -3.97569e-015 3.57812e-015
lhumerus -43.8775 11.9224 80.7267
lradius 23.1268
lwrist -24.162
lhand -9.64864 -8.28319
lfingers 7.12502
lthumb 16.322 21.0499
rfemur -4.83297 26.2233 24.5815
rtibia 0.894008
rfoot -14.4201 -29.6633
rtoes 7.99774
lfemur 1.15091 -51.2474 -8.5965
ltibia -4.29316
lfoot -30.0209 56.6788
ltoes 16.7911
47
root -0.00860408 17.5467 8.47976 11.5054 2.37159 -8.63251
lowerback -1.76236 0.760661 6.39782
upperback -11.5145 1.47285 1.48701
thorax -11.2651 0.195513 -2.07259
lowerneck 0.800038 -13.2132 -12.1133
upperneck 19.1566 -20.0874 12.0132
head 8.26027 -9.76476 4.16403
rclavicle -4.17448e-015 1.59028e-015
rhumerus -44.4965 -13.0731 -80.1453
rradius 24.7544
rwrist 38.8961
rhand 5.23657 -35.3406
rfingers 7.12502
rthumb 30.5956 -62.8184
lclavicle -4.17448e-015 1.59028e-015
lhumerus -43.8644 11.9247 80.7038
lradius 23.1383
lwrist -24.1862
lhand -9.41511 -8.51613
lfingers 7.12502
lthumb 16.5468 20.7984
rfemur -4.84897 26.2092 24.6181
rtibia 0.889423
rfoot -14.4096 -29.6484
rtoes 8.04771
lfemur 1.13523 -51.2794 -8.53059
ltibia -4.30469
lfoot -29.874 56.7368
ltoes 16.6364
48
root -0.0083277 17.5462 8.47926 11.5336 2.38128 -8.63939
lowerback -1.80302 0.766548 6.38286
upperback -11.5024 1.47717 1.49984
thorax -11.2262 0.20133 -2.05022
lowerneck 0.785964 -13.1775 -11.9908
upperneck 18.9764 -19.9957 11.9313
head 8.16737 -9.72203 4.13447
rclavicle 5.86415e-015 -1.78906e-014
rhumerus -44.4913 -13.2638 -79.9563
rradius 24.7388
rwrist 39.0571
rhand 5.22924 -35.294
rfingers 7.12502
rthumb 30.5886 -62.7731
lclavicle 5.86415e-015 -1.78906e-014
lhumerus -43.8419 11.8637 80.7437
lradius 23.1499
lwrist -24.1395
lhand -9.45573 -8.72333
lfingers 7.12502
lthumb 16.5077 20.5944
rfemur -4.88012 26.2029 24.607
rtibia 0.872792
rfoot -14.3377 -29.6491
rtoes 7.87749
lfemur 1.05753 -51.2234 -8.4536
ltibia -4.31206
lfoot -29.645 56.707
ltoes 16.4203
